<?xml version="1.0" standalone="no"?>
<!DOCTYPE svg PUBLIC "-//W3C//DTD SVG 20010904//EN"
 "http://www.w3.org/TR/2001/REC-SVG-20010904/DTD/svg10.dtd">
<svg version="1.0" xmlns="http://www.w3.org/2000/svg"
 width="500.000000pt" height="500.000000pt" viewBox="0 0 500.000000 500.000000"
 preserveAspectRatio="xMidYMid meet">
<metadata>
Created by potrace 1.14, written by Peter Selinger 2001-2017
</metadata>
<g transform="translate(0.000000,500.000000) scale(0.100000,-0.100000)"
fill="#000000" stroke="none">
<path d="M0 2500 l0 -2500 2500 0 2500 0 -1 1553 c0 1123 -3 1546 -11 1530 -6
-13 -14 -23 -18 -23 -5 0 -75 36 -156 80 -160 86 -153 84 -183 31 -6 -10 -22
-5 -75 25 -69 40 -72 44 -56 74 8 15 6 20 -12 26 -12 4 -24 2 -25 -3 -2 -6
-10 -18 -17 -28 -12 -17 -16 -16 -72 15 -90 51 -87 44 -53 112 17 33 29 61 27
62 -2 2 -85 47 -185 100 l-183 97 -54 -12 -54 -12 -263 143 c-233 125 -266
140 -284 129 -11 -7 -57 -43 -102 -81 l-82 -69 -55 10 c-51 9 -58 8 -108 -18
-29 -16 -67 -32 -85 -36 -22 -4 -60 -35 -130 -106 l-98 -100 -92 3 c-90 2 -94
1 -122 -26 -25 -24 -28 -32 -20 -53 15 -40 10 -135 -10 -178 -22 -48 -96 -118
-148 -140 -50 -21 -163 -31 -191 -16 -18 9 -19 15 -11 43 13 47 13 47 -27 36
-49 -13 -56 -3 -57 74 0 117 41 199 132 263 40 28 49 30 132 31 83 0 91 2 117
27 27 26 28 29 24 115 l-4 88 96 97 c76 77 96 103 96 125 0 47 29 117 67 161
53 62 103 85 197 88 64 2 83 6 101 23 57 53 197 76 272 45 28 -12 38 -13 44
-4 5 9 123 -50 380 -187 l372 -199 25 -56 c24 -52 30 -58 111 -101 47 -25 128
-69 180 -97 52 -28 98 -51 103 -51 4 0 20 25 35 55 15 30 32 55 38 55 5 0 37
-15 70 -33 56 -30 60 -35 60 -67 0 -40 29 -55 40 -21 3 12 10 21 15 21 16 0
134 -68 138 -80 2 -6 -3 -22 -12 -35 -9 -13 -16 -26 -16 -29 0 -5 153 -90 183
-101 16 -7 17 36 17 809 l0 816 -2500 0 -2500 0 0 -2500z m1004 649 c14 -11
26 -27 26 -34 0 -8 27 -42 60 -75 69 -68 117 -158 152 -285 43 -158 25 -562
-27 -605 -23 -19 -25 4 -4 101 25 123 27 331 4 443 -31 150 -100 293 -160 332
-23 15 -26 15 -51 -5 -31 -25 -55 -26 -93 -6 -50 25 -57 91 -15 130 33 30 73
32 108 4z m1031 -99 c0 -29 -4 -35 -23 -36 -18 -1 -19 -1 -2 3 30 7 28 60 -2
66 -20 5 -20 5 2 4 22 -2 25 -7 25 -37z m2285 -35 l0 -66 30 16 c49 25 88 19
126 -19 34 -34 34 -34 34 -130 0 -88 -2 -96 -19 -96 -17 0 -19 9 -23 91 -3 81
-6 93 -27 110 -32 26 -67 24 -96 -6 -23 -22 -25 -32 -25 -110 0 -84 0 -85 -25
-85 l-25 0 0 180 0 180 25 0 c24 0 25 -2 25 -65z m-2333 23 c-3 -7 -5 -2 -5
12 0 14 2 19 5 13 2 -7 2 -19 0 -25z m-124 10 c33 -17 46 -39 47 -79 0 -23 -7
-42 -19 -53 -18 -17 -18 -18 5 -41 37 -37 33 -95 -7 -129 -28 -24 -38 -26
-125 -26 l-94 0 0 170 0 170 86 0 c47 0 95 -5 107 -12z m1727 -8 c0 -18 -7
-20 -55 -20 l-55 0 0 -150 0 -150 -25 0 -25 0 0 150 0 150 -55 0 c-48 0 -55 2
-55 20 0 19 7 20 135 20 128 0 135 -1 135 -20z m-1278 -89 c33 -29 33 -31 36
-130 4 -95 3 -101 -16 -101 -18 0 -20 8 -24 91 -3 81 -6 93 -27 110 -32 26
-67 24 -96 -6 -23 -22 -25 -32 -25 -110 0 -84 0 -85 -25 -85 l-25 0 0 125 c0
118 1 125 20 125 12 0 20 -7 20 -17 0 -14 2 -15 18 -1 43 38 101 37 144 -1z
m288 14 c43 -22 50 -43 50 -149 0 -75 -3 -96 -14 -96 -8 0 -17 7 -20 16 -5 14
-8 14 -28 0 -35 -24 -116 -21 -145 6 -31 29 -30 72 2 103 21 22 33 25 95 25
77 0 88 12 50 50 -26 26 -74 26 -101 -1 -11 -11 -30 -19 -42 -17 -21 3 -20 6
15 41 41 42 86 49 138 22z m1224 0 c35 -17 60 -53 71 -102 l7 -33 -111 0 c-61
0 -111 -3 -111 -8 0 -17 34 -54 57 -63 28 -10 93 5 93 22 0 5 15 9 33 9 l32
-1 -37 -34 c-47 -44 -95 -53 -144 -29 -53 26 -76 62 -76 116 0 59 22 101 64
121 42 21 81 21 122 2z m310 1 c34 -14 66 -50 66 -73 0 -20 -38 -15 -49 6 -14
25 -65 45 -96 37 -64 -16 -87 -99 -42 -151 31 -37 88 -37 126 -1 29 28 61 34
61 12 0 -22 -67 -74 -104 -82 -25 -4 -46 -1 -72 12 -52 26 -76 62 -76 116 -2
104 89 165 186 124z m-1360 -12 c6 -16 8 -16 24 0 10 9 35 16 56 16 30 0 37
-3 34 -17 -2 -12 -14 -19 -35 -21 -54 -5 -73 -40 -73 -133 0 -72 -2 -79 -20
-79 -19 0 -20 7 -20 125 0 100 3 125 14 125 8 0 17 -7 20 -16z m233 -80 l45
-96 37 93 c29 76 41 95 59 97 12 2 22 1 22 -2 0 -15 -123 -313 -134 -324 -7
-8 -32 -16 -55 -19 -37 -5 -41 -4 -41 16 0 16 6 21 24 21 27 0 51 20 61 49 4
13 -12 55 -43 118 -65 130 -69 143 -42 143 17 0 30 -19 67 -96z m-977 -39 c0
-104 -2 -125 -15 -125 -12 0 -15 17 -15 95 0 95 0 95 -25 95 -14 0 -25 5 -25
10 0 6 9 10 20 10 11 0 25 9 32 20 7 11 16 20 20 20 5 0 8 -56 8 -125z m-1275
56 c17 -3 30 -12 30 -20 0 -11 -24 -14 -115 -15 -94 -1 -122 -5 -155 -21 -85
-43 -109 -138 -61 -242 20 -43 22 -54 11 -63 -17 -14 -36 13 -59 83 -42 126 5
226 126 268 53 18 161 23 223 10z m652 -27 c29 -14 63 -39 75 -57 30 -42 36
-138 14 -204 -19 -56 -95 -173 -113 -173 -25 0 -23 22 5 58 68 86 100 184 83
250 -19 70 -99 122 -188 122 -34 0 -49 13 -37 31 10 17 101 2 161 -27z m-286
1 c1 -5 -35 -22 -79 -36 -276 -91 -524 -288 -594 -471 -23 -60 -24 -98 -2 -98
25 0 74 -56 74 -85 0 -37 -50 -85 -88 -85 -66 0 -107 90 -62 138 11 12 20 32
20 45 0 48 32 128 81 201 101 152 295 293 511 372 91 33 138 39 139 19z m919
-315 c0 -17 -7 -20 -47 -20 -76 0 -77 -3 -83 -139 -4 -96 -8 -124 -22 -138
-17 -16 -17 -18 0 -36 13 -15 18 -44 22 -138 6 -136 7 -139 83 -139 40 0 47
-3 47 -20 0 -18 -7 -20 -59 -20 -33 0 -67 3 -76 6 -33 13 -45 59 -45 172 0
111 -7 132 -42 132 -13 0 -18 8 -18 25 0 18 5 25 19 25 33 0 39 22 43 143 3
116 4 119 31 143 23 20 39 24 88 24 52 0 59 -2 59 -20z m2167 -4 c27 -23 28
-27 33 -152 l5 -129 28 -3 c21 -3 27 -9 27 -28 0 -17 -6 -24 -19 -24 -32 0
-39 -22 -43 -142 -3 -107 -5 -119 -27 -142 -21 -23 -33 -26 -88 -26 -56 0 -63
2 -63 20 0 17 7 20 49 20 74 0 81 11 81 136 0 71 5 114 14 132 12 24 12 30 0
47 -10 13 -14 50 -14 131 0 105 -1 114 -22 128 -12 9 -42 16 -65 16 -36 0 -43
3 -43 20 0 18 7 20 59 20 49 0 65 -4 88 -24z m-3213 -22 c35 -34 8 -104 -41
-104 -27 0 -63 33 -63 58 0 52 68 82 104 46z m2884 -11 c34 -25 60 -61 68 -95
5 -24 3 -28 -15 -28 -13 0 -23 8 -27 24 -15 63 -99 99 -189 82 -66 -13 -101
-71 -79 -130 10 -25 63 -52 149 -76 124 -33 175 -75 175 -145 0 -86 -71 -139
-185 -139 -108 0 -175 43 -192 124 -4 25 -2 30 13 30 13 0 25 -14 35 -39 11
-25 29 -46 50 -57 44 -24 143 -24 186 -1 59 31 64 114 9 150 -12 8 -67 28
-123 46 -130 40 -163 69 -163 142 0 62 21 96 75 121 54 25 174 20 213 -9z
m-1668 -223 l0 -240 135 0 c128 0 135 -1 135 -20 0 -19 -7 -20 -155 -20 l-155
0 0 260 c0 253 1 260 20 260 19 0 20 -7 20 -240z m681 -22 c100 -243 105 -258
84 -258 -19 0 -27 12 -48 63 l-25 62 -140 3 -140 3 -27 -66 c-20 -47 -33 -65
-47 -65 -10 0 -18 4 -18 8 0 7 68 174 196 480 10 26 19 33 36 30 18 -3 38 -43
129 -260z m498 242 c38 -19 71 -69 71 -108 0 -39 -23 -84 -53 -102 l-29 -18
31 -16 c39 -21 61 -63 61 -120 0 -36 -6 -52 -31 -80 -40 -46 -79 -56 -221 -56
l-118 0 0 260 0 260 125 0 c105 0 132 -3 164 -20z m-2775 -127 c205 -190 544
-317 721 -271 l50 13 6 49 c9 78 75 111 133 65 21 -16 26 -29 26 -64 0 -59
-36 -90 -95 -81 -24 3 -57 -1 -80 -9 -54 -19 -200 -19 -287 1 -121 28 -282
103 -393 182 -69 50 -176 153 -169 163 10 17 27 8 88 -48z m135 -299 c57 -123
126 -184 206 -184 51 0 85 21 143 87 43 48 52 55 58 40 10 -26 -43 -96 -99
-131 -94 -58 -186 -40 -267 52 -46 52 -104 166 -96 188 10 27 24 14 55 -52z"/>
<path d="M922 3118 c-15 -15 -15 -51 0 -66 28 -28 78 -7 78 33 0 27 -18 45
-45 45 -12 0 -26 -5 -33 -12z"/>
<path d="M1720 2964 l0 -56 31 6 c17 3 44 6 60 6 30 0 59 23 59 46 0 32 -38
54 -95 54 l-55 0 0 -56z"/>
<path d="M1720 2815 l0 -55 54 0 c68 0 85 7 97 38 7 18 5 31 -6 48 -14 21 -23
24 -80 24 l-65 0 0 -55z"/>
<path d="M2469 2809 c-28 -53 75 -74 118 -24 13 14 23 30 23 36 0 5 -29 9 -65
9 -55 0 -66 -3 -76 -21z"/>
<path d="M3725 2928 c-21 -12 -44 -38 -45 -50 0 -5 39 -8 86 -8 74 0 85 2 80
16 -3 9 -6 17 -6 20 0 8 -60 34 -77 34 -10 0 -27 -6 -38 -12z"/>
<path d="M402 2208 c-30 -30 -3 -83 39 -76 32 5 45 31 31 62 -13 28 -49 35
-70 14z"/>
<path d="M2757 2463 c-3 -5 -29 -65 -57 -133 -29 -69 -54 -131 -57 -137 -4
-10 23 -13 116 -13 67 0 121 2 121 3 0 17 -119 287 -123 280z"/>
<path d="M3150 2395 l0 -95 95 0 c134 0 165 18 165 95 0 77 -31 95 -165 95
l-95 0 0 -95z"/>
<path d="M3150 2154 l0 -106 111 4 111 3 29 33 c50 56 33 129 -37 158 -20 8
-69 14 -124 14 l-90 0 0 -106z"/>
<path d="M1436 2198 c-13 -19 -14 -25 -2 -43 16 -25 65 -27 79 -3 8 12 8 24
-1 42 -15 33 -55 35 -76 4z"/>
<path d="M3116 4272 c4 -14 -5 -21 -50 -35 -30 -10 -58 -22 -62 -28 -3 -5 12
-29 33 -53 21 -23 43 -51 49 -61 10 -18 12 -17 48 11 20 16 52 57 71 92 l33
63 -23 9 c-13 5 -41 11 -63 15 -36 5 -40 4 -36 -13z"/>
<path d="M3226 4164 c-31 -58 -56 -108 -56 -112 0 -4 30 -23 68 -43 62 -34 76
-37 181 -43 l113 -7 182 -96 c99 -52 185 -99 191 -105 7 -6 3 -22 -12 -48 -12
-22 -18 -42 -15 -44 4 -2 27 2 51 8 38 10 47 18 73 64 27 49 28 55 16 89 -7
19 -18 38 -25 40 -6 3 -42 -5 -78 -18 -63 -21 -68 -21 -98 -6 -60 31 -287 159
-469 264 l-78 45 16 36 c25 58 27 69 10 75 -11 4 -29 -21 -70 -99z"/>
<path d="M2969 4233 c-13 -17 -13 -17 6 -3 11 8 22 16 24 17 2 2 0 3 -6 3 -6
0 -17 -8 -24 -17z"/>
<path d="M3332 4205 c-7 -14 -12 -30 -12 -35 0 -5 28 -24 63 -43 34 -18 150
-84 259 -145 108 -62 204 -112 214 -112 26 0 94 22 94 31 0 6 -592 329 -603
329 -2 0 -9 -11 -15 -25z"/>
<path d="M2799 4201 c-79 -16 -157 -91 -179 -171 -25 -92 20 -205 102 -256 53
-34 154 -44 208 -22 151 63 196 251 89 371 -56 64 -141 94 -220 78z m176 -126
l57 -75 -26 -74 c-15 -41 -33 -81 -39 -90 -8 -9 -45 -20 -100 -29 l-88 -14
-61 74 -60 74 32 85 c18 47 37 87 42 90 7 5 134 28 174 33 6 0 37 -33 69 -74z"/>
<path d="M2855 4105 c-5 -2 -31 -6 -57 -10 l-47 -6 -26 -70 -27 -70 42 -55
c24 -30 46 -56 49 -58 5 -4 82 7 136 19 15 3 27 23 44 73 l24 69 -44 56 c-41
52 -61 63 -94 52z"/>
<path d="M3110 3977 c0 -58 -5 -84 -25 -122 -13 -27 -22 -52 -19 -57 3 -4 20
-8 37 -8 24 0 51 15 112 65 44 36 81 69 83 73 1 4 -38 29 -88 55 -50 27 -88
53 -85 58 4 5 1 9 -4 9 -7 0 -11 -28 -11 -73z"/>
<path d="M3391 3926 c2 -2 102 -56 223 -121 l219 -118 18 24 c23 31 29 26
-178 134 -152 80 -165 85 -224 85 -34 0 -60 -2 -58 -4z"/>
<path d="M2564 3899 c-3 -6 5 -23 19 -37 l26 -26 -11 37 c-12 38 -22 46 -34
26z"/>
<path d="M2477 3812 l-47 -48 0 -70 c0 -69 0 -70 43 -112 42 -41 44 -42 113
-42 l70 0 49 50 49 50 -109 110 c-60 61 -112 110 -115 110 -3 0 -27 -22 -53
-48z"/>
<path d="M4032 3724 c-12 -24 -22 -47 -22 -49 0 -6 77 -45 89 -45 9 0 51 70
51 84 0 3 -22 17 -48 30 l-49 25 -21 -45z"/>
<path d="M2747 3700 c27 -28 34 -31 47 -20 23 18 20 27 -11 32 -16 3 -37 9
-48 13 -15 6 -11 -1 12 -25z"/>
<path d="M4161 3655 c-13 -25 -22 -47 -20 -48 17 -14 78 -47 85 -47 8 0 54 72
54 84 0 3 -88 56 -94 56 0 0 -12 -20 -25 -45z"/>
<path d="M4499 3654 c-5 -15 -8 -28 -7 -29 2 -1 21 -12 43 -24 37 -22 40 -22
52 -5 20 28 16 37 -27 62 -49 28 -48 28 -61 -4z"/>
<path d="M4292 3591 c-12 -22 -22 -43 -22 -47 0 -5 22 -22 50 -37 l49 -28 21
40 c11 22 20 45 20 50 0 6 -22 22 -48 35 l-49 25 -21 -38z"/>
<path d="M4428 3520 c-21 -38 -38 -75 -38 -82 0 -7 18 -23 39 -35 l39 -23 35
63 c64 116 62 104 18 127 -22 11 -44 20 -48 20 -4 0 -25 -32 -45 -70z"/>
<path d="M4657 3497 c-24 -45 -65 -121 -91 -169 l-46 -88 30 -15 29 -15 67
128 c37 70 75 141 85 158 25 42 24 59 -6 72 -23 11 -26 8 -68 -71z"/>
<path d="M2368 3511 c-55 -55 -57 -59 -40 -74 17 -16 22 -13 77 43 50 50 56
61 45 74 -7 9 -15 16 -19 16 -3 0 -32 -27 -63 -59z"/>
<path d="M4544 3445 c-50 -97 -57 -117 -44 -125 19 -12 18 -13 85 114 46 86
55 110 44 117 -8 5 -17 9 -20 9 -4 0 -33 -52 -65 -115z"/>
<path d="M2215 3505 c-5 -2 -22 -6 -38 -9 -37 -9 -104 -70 -128 -119 -26 -50
-39 -177 -18 -177 24 0 34 14 36 51 1 20 6 54 12 76 18 65 98 133 157 133 17
0 38 8 48 19 15 17 15 19 1 25 -17 6 -53 7 -70 1z"/>
<path d="M4731 3348 c-49 -91 -50 -93 -31 -108 27 -20 170 -93 174 -89 8 10
75 143 73 145 -1 1 -39 20 -84 43 -46 23 -83 45 -83 50 0 22 31 15 104 -26 75
-41 96 -47 82 -24 -5 8 -172 101 -181 101 -2 0 -26 -42 -54 -92z"/>
<path d="M2213 3422 c-62 -19 -113 -103 -113 -186 l0 -36 50 0 c100 0 176 66
173 149 -1 24 -8 50 -15 57 -17 17 -66 25 -95 16z"/>
<path d="M2372 3398 c-5 -7 -12 -36 -14 -65 -9 -92 -88 -160 -199 -171 -30 -3
-50 -10 -54 -20 -8 -22 -1 -25 60 -23 150 3 273 141 239 269 -7 25 -17 28 -32
10z"/>
<path d="M4351 3372 c-11 -23 -10 -28 11 -44 37 -29 60 -33 75 -12 21 29 16
39 -31 61 l-43 22 -12 -27z"/>
<path d="M4947 3220 l-48 -89 30 -16 30 -15 21 40 c16 32 20 56 18 105 l-3 64
-48 -89z"/>
</g>
</svg>
